<svg width="29" height="29" viewBox="0 0 29 29" fill="none" xmlns="http://www.w3.org/2000/svg">
<g clip-path="url(#clip0_4_13)">
<path d="M14.5 2.41667C7.82999 2.41667 2.41666 7.83 2.41666 14.5C2.41666 21.17 7.82999 26.5833 14.5 26.5833C21.17 26.5833 26.5833 21.17 26.5833 14.5C26.5833 7.83 21.17 2.41667 14.5 2.41667ZM14.5 7.25C16.8321 7.25 18.7292 9.14709 18.7292 11.4792C18.7292 13.8113 16.8321 15.7083 14.5 15.7083C12.1679 15.7083 10.2708 13.8113 10.2708 11.4792C10.2708 9.14709 12.1679 7.25 14.5 7.25ZM14.5 24.1667C12.0471 24.1667 9.14707 23.1758 7.08082 20.6867C9.12291 19.0917 11.6967 18.125 14.5 18.125C17.3033 18.125 19.8771 19.0917 21.9192 20.6867C19.8529 23.1758 16.9529 24.1667 14.5 24.1667Z" fill="#EA8121"/>
</g>
<defs>
<clipPath id="clip0_4_13">
<rect width="29" height="29" fill="white"/>
</clipPath>
</defs>
</svg>
